<svg width="43" height="44" viewBox="0 0 43 44" fill="none" xmlns="http://www.w3.org/2000/svg">
<g filter="url(#filter0_d)">
<rect width="40" height="40" rx="10" fill="white"/>
<rect x="0.5" y="0.5" width="39" height="39" rx="9.5" stroke="black" stroke-opacity="0.3"/>
</g>
<path d="M27.2852 18.3164C27.2852 20.2305 26.7188 21.7109 25.5859 22.7578C24.4609 23.7969 22.8594 24.3164 20.7812 24.3164H19.4805V30H14.8516V12.8672H20.7812C22.9453 12.8672 24.5703 13.3398 25.6562 14.2852C26.7422 15.2305 27.2852 16.5742 27.2852 18.3164ZM19.4805 20.543H20.3242C21.0195 20.543 21.5703 20.3477 21.9766 19.957C22.3906 19.5664 22.5977 19.0273 22.5977 18.3398C22.5977 17.1836 21.957 16.6055 20.6758 16.6055H19.4805V20.543Z" fill="black" fill-opacity="0.3"/>
<defs>
<filter id="filter0_d" x="0" y="0" width="43" height="44" filterUnits="userSpaceOnUse" color-interpolation-filters="sRGB">
<feFlood flood-opacity="0" result="BackgroundImageFix"/>
<feColorMatrix in="SourceAlpha" type="matrix" values="0 0 0 0 0 0 0 0 0 0 0 0 0 0 0 0 0 0 127 0"/>
<feOffset dx="3" dy="4"/>
<feColorMatrix type="matrix" values="0 0 0 0 0 0 0 0 0 0 0 0 0 0 0 0 0 0 0.15 0"/>
<feBlend mode="normal" in2="BackgroundImageFix" result="effect1_dropShadow"/>
<feBlend mode="normal" in="SourceGraphic" in2="effect1_dropShadow" result="shape"/>
</filter>
</defs>
</svg>
