<svg width="43" height="44" viewBox="0 0 43 44" fill="none" xmlns="http://www.w3.org/2000/svg">
<g filter="url(#filter0_d)">
<rect width="40" height="40" rx="10" fill="white"/>
<rect x="0.5" y="0.5" width="39" height="39" rx="9.5" stroke="black" stroke-opacity="0.3"/>
</g>
<path d="M22.4805 16.418C21.3789 16.418 20.5195 16.8711 19.9023 17.7773C19.2852 18.6758 18.9766 19.918 18.9766 21.5039C18.9766 24.8008 20.2305 26.4492 22.7383 26.4492C23.4961 26.4492 24.2305 26.3438 24.9414 26.1328C25.6523 25.9219 26.3672 25.668 27.0859 25.3711V29.2852C25.6562 29.918 24.0391 30.2344 22.2344 30.2344C19.6484 30.2344 17.6641 29.4844 16.2812 27.9844C14.9062 26.4844 14.2188 24.3164 14.2188 21.4805C14.2188 19.707 14.5508 18.1484 15.2148 16.8047C15.8867 15.4609 16.8477 14.4297 18.0977 13.7109C19.3555 12.9844 20.832 12.6211 22.5273 12.6211C24.3789 12.6211 26.1484 13.0234 27.8359 13.8281L26.418 17.4727C25.7852 17.1758 25.1523 16.9258 24.5195 16.7227C23.8867 16.5195 23.207 16.418 22.4805 16.418Z" fill="black" fill-opacity="0.3"/>
<defs>
<filter id="filter0_d" x="0" y="0" width="43" height="44" filterUnits="userSpaceOnUse" color-interpolation-filters="sRGB">
<feFlood flood-opacity="0" result="BackgroundImageFix"/>
<feColorMatrix in="SourceAlpha" type="matrix" values="0 0 0 0 0 0 0 0 0 0 0 0 0 0 0 0 0 0 127 0"/>
<feOffset dx="3" dy="4"/>
<feColorMatrix type="matrix" values="0 0 0 0 0 0 0 0 0 0 0 0 0 0 0 0 0 0 0.15 0"/>
<feBlend mode="normal" in2="BackgroundImageFix" result="effect1_dropShadow"/>
<feBlend mode="normal" in="SourceGraphic" in2="effect1_dropShadow" result="shape"/>
</filter>
</defs>
</svg>
