<svg width="66" height="44" viewBox="0 0 66 44" fill="none" xmlns="http://www.w3.org/2000/svg">
<g filter="url(#filter0_d)">
<rect width="63" height="40" rx="10" fill="white"/>
<rect x="0.5" y="0.5" width="62" height="39" rx="9.5" stroke="black" stroke-opacity="0.3"/>
</g>
<path d="M25.0234 30H14.8516V12.8672H25.0234V16.582H19.4805V19.2773H24.6133V22.9922H19.4805V26.2266H25.0234V30ZM38.0078 25.9219C38.0078 27.3438 37.5234 28.418 36.5547 29.1445C35.5859 29.8711 34.1953 30.2344 32.3828 30.2344C31.3984 30.2344 30.543 30.1797 29.8164 30.0703C29.0898 29.9688 28.3477 29.7773 27.5898 29.4961V25.8281C28.3008 26.1406 29.0781 26.3984 29.9219 26.6016C30.7734 26.8047 31.5312 26.9062 32.1953 26.9062C33.1875 26.9062 33.6836 26.6797 33.6836 26.2266C33.6836 25.9922 33.543 25.7852 33.2617 25.6055C32.9883 25.418 32.1836 25.0586 30.8477 24.5273C29.6289 24.0273 28.7773 23.4609 28.293 22.8281C27.8086 22.1875 27.5664 21.3789 27.5664 20.4023C27.5664 19.168 28.043 18.207 28.9961 17.5195C29.9492 16.832 31.2969 16.4883 33.0391 16.4883C33.9141 16.4883 34.7344 16.5859 35.5 16.7812C36.2734 16.9688 37.0742 17.2461 37.9023 17.6133L36.6602 20.5664C36.0508 20.293 35.4062 20.0625 34.7266 19.875C34.0469 19.6797 33.4922 19.582 33.0625 19.582C32.3125 19.582 31.9375 19.7656 31.9375 20.1328C31.9375 20.3594 32.0664 20.5547 32.3242 20.7188C32.5898 20.875 33.3477 21.1992 34.5977 21.6914C35.5273 22.0742 36.2188 22.4492 36.6719 22.8164C37.1328 23.1836 37.4688 23.6172 37.6797 24.1172C37.8984 24.6094 38.0078 25.2109 38.0078 25.9219ZM46.5977 30.2344C44.4258 30.2344 42.7773 29.6484 41.6523 28.4766C40.5352 27.3047 39.9766 25.6211 39.9766 23.4258C39.9766 21.2227 40.582 19.5156 41.793 18.3047C43.0039 17.0938 44.7266 16.4883 46.9609 16.4883C48.5 16.4883 49.9492 16.8242 51.3086 17.4961L49.9609 20.8828C49.4062 20.6406 48.8945 20.4492 48.4258 20.3086C47.957 20.1602 47.4688 20.0859 46.9609 20.0859C46.2188 20.0859 45.6445 20.375 45.2383 20.9531C44.832 21.5312 44.6289 22.3477 44.6289 23.4023C44.6289 25.5273 45.4141 26.5898 46.9844 26.5898C48.3281 26.5898 49.6172 26.1992 50.8516 25.418V29.0625C49.6719 29.8438 48.2539 30.2344 46.5977 30.2344Z" fill="black" fill-opacity="0.3"/>
<defs>
<filter id="filter0_d" x="0" y="0" width="66" height="44" filterUnits="userSpaceOnUse" color-interpolation-filters="sRGB">
<feFlood flood-opacity="0" result="BackgroundImageFix"/>
<feColorMatrix in="SourceAlpha" type="matrix" values="0 0 0 0 0 0 0 0 0 0 0 0 0 0 0 0 0 0 127 0"/>
<feOffset dx="3" dy="4"/>
<feColorMatrix type="matrix" values="0 0 0 0 0 0 0 0 0 0 0 0 0 0 0 0 0 0 0.15 0"/>
<feBlend mode="normal" in2="BackgroundImageFix" result="effect1_dropShadow"/>
<feBlend mode="normal" in="SourceGraphic" in2="effect1_dropShadow" result="shape"/>
</filter>
</defs>
</svg>
